<svg width="141" height="27" viewBox="0 0 141 27" fill="none" xmlns="http://www.w3.org/2000/svg">
<path d="M139.893 14.5657C140.23 15.136 139.9 15.898 138.831 16.7527C137.646 17.6902 136.426 18.5843 135.224 19.5002C134.738 20.163 134.033 20.4968 133.273 20.6388C131.97 20.8941 131.08 19.8136 131.589 18.5911C131.865 17.9304 132.202 17.2566 132.967 16.9923C134.28 15.8859 135.755 15.0185 137.331 14.3519C138.563 13.8314 139.53 13.957 139.893 14.5657Z" fill="black"/>
<path d="M131.039 8.4293C130.672 8.66096 130.296 8.92094 130.018 9.24865C128.783 10.7012 127.566 12.1711 126.642 13.8518C126.455 14.1902 126.303 14.559 126.203 14.9317C126.053 15.4945 126.174 16.0064 126.689 16.3512C127.199 16.6925 127.702 16.5988 128.201 16.2952C128.586 16.0617 128.898 15.7497 129.144 15.3862C129.609 14.6988 130.043 13.991 130.311 13.5707C130.915 12.5201 131.371 11.7667 131.782 10.9899C132.032 10.5171 132.246 10.0187 132.417 9.51067C132.546 9.12777 132.502 8.72805 132.14 8.45173C131.786 8.17947 131.387 8.21151 131.039 8.4293Z" fill="black"/>
<path d="M122.829 4.70129C123.006 5.24323 123.249 5.79564 123.043 6.39628L123.051 6.40097C123.341 8.38552 123.612 10.3681 123.385 12.3771C123.32 12.953 123.199 13.5347 123.049 14.0974C122.906 14.6649 122.527 15.0295 121.927 15.1168C121.327 15.2044 120.9 14.8897 120.564 14.4344C120.249 13.9932 120.103 13.4704 119.992 12.9394C119.605 11.1546 119.648 9.35192 119.779 7.54268C119.512 6.61881 119.727 5.70988 119.939 4.82068C120.116 4.11811 120.541 3.58424 121.332 3.5244C121.979 3.47851 122.567 3.91677 122.829 4.70129Z" fill="black"/>
<path d="M14.234 7.48L9.108 16.698V22H5.324V16.698L0.198 7.48H4.114L6.16 11.462L7.238 13.882L8.338 11.462L10.384 7.48H14.234ZM52.9604 7.26C54.3097 7.26 55.4977 7.47267 56.5244 7.898C57.5657 8.30867 58.4677 8.91733 59.2304 9.724L57.4044 12.166C56.7737 11.506 56.0917 11.0147 55.3584 10.692C54.6397 10.3547 53.8184 10.186 52.8944 10.186C52.3517 10.186 51.9117 10.2447 51.5744 10.362C51.237 10.4793 50.995 10.6407 50.8484 10.846C50.7017 11.0513 50.6284 11.286 50.6284 11.55C50.6284 11.858 50.7677 12.122 51.0464 12.342C51.3397 12.5473 51.809 12.7233 52.4544 12.87L54.8964 13.42C56.3484 13.7573 57.4117 14.2487 58.0864 14.894C58.761 15.5393 59.0984 16.3973 59.0984 17.468C59.0984 18.4947 58.8344 19.3673 58.3064 20.086C57.7784 20.79 57.0524 21.3253 56.1284 21.692C55.2044 22.044 54.1484 22.22 52.9604 22.22C51.9924 22.22 51.0684 22.1173 50.1884 21.912C49.3084 21.692 48.5164 21.384 47.8124 20.988C47.1084 20.592 46.5144 20.1373 46.0304 19.624L47.8564 17.094C48.223 17.5193 48.6704 17.9007 49.1984 18.238C49.741 18.5607 50.3277 18.8173 50.9584 19.008C51.6037 19.1987 52.2564 19.294 52.9164 19.294C53.4297 19.294 53.855 19.2427 54.1924 19.14C54.5444 19.0373 54.801 18.8833 54.9624 18.678C55.1237 18.4727 55.2044 18.2307 55.2044 17.952C55.2044 17.644 55.0944 17.3873 54.8744 17.182C54.6544 16.962 54.2364 16.7787 53.6204 16.632L50.9364 16.038C50.115 15.8473 49.3817 15.598 48.7364 15.29C48.1057 14.9673 47.607 14.542 47.2404 14.014C46.8737 13.4713 46.6904 12.7967 46.6904 11.99C46.6904 11.0807 46.9397 10.274 47.4384 9.57C47.937 8.85133 48.6557 8.28667 49.5944 7.876C50.533 7.46533 51.655 7.26 52.9604 7.26Z" fill="#EE2B69"/>
<path d="M17.9922 10.78C19.1509 10.78 20.1629 11.0073 21.0282 11.462C21.9082 11.902 22.5902 12.5547 23.0742 13.42C23.5729 14.2707 23.8222 15.2973 23.8222 16.5C23.8222 17.7027 23.5729 18.7367 23.0742 19.602C22.5902 20.4527 21.9082 21.1053 21.0282 21.56C20.1629 22 19.1509 22.22 17.9922 22.22C16.8629 22.22 15.8582 22 14.9782 21.56C14.0982 21.1053 13.4089 20.4527 12.9102 19.602C12.4262 18.7367 12.1842 17.7027 12.1842 16.5C12.1842 15.2973 12.4262 14.2707 12.9102 13.42C13.4089 12.5547 14.0982 11.902 14.9782 11.462C15.8582 11.0073 16.8629 10.78 17.9922 10.78ZM17.9922 13.442C17.5669 13.442 17.2002 13.5447 16.8922 13.75C16.5842 13.9553 16.3496 14.2853 16.1882 14.74C16.0269 15.1947 15.9462 15.7813 15.9462 16.5C15.9462 17.2187 16.0269 17.8053 16.1882 18.26C16.3496 18.7 16.5842 19.03 16.8922 19.25C17.2002 19.4553 17.5669 19.558 17.9922 19.558C18.4322 19.558 18.8062 19.4553 19.1142 19.25C19.4222 19.03 19.6569 18.7 19.8182 18.26C19.9796 17.8053 20.0602 17.2187 20.0602 16.5C20.0602 15.7813 19.9796 15.1947 19.8182 14.74C19.6569 14.2853 19.4222 13.9553 19.1142 13.75C18.8062 13.5447 18.4322 13.442 17.9922 13.442ZM28.9841 22.22C28.2361 22.22 27.5761 22.0953 27.0041 21.846C26.4468 21.582 26.0068 21.164 25.6841 20.592C25.3615 20.02 25.2001 19.272 25.2001 18.348V11H28.9401V17.468C28.9401 18.172 29.0795 18.6633 29.3581 18.942C29.6368 19.2207 30.0328 19.36 30.5461 19.36C30.8101 19.36 31.0595 19.316 31.2941 19.228C31.5288 19.1253 31.7341 18.9787 31.9101 18.788C32.0861 18.5827 32.2181 18.326 32.3061 18.018C32.4088 17.6953 32.4601 17.3213 32.4601 16.896V11H36.2001V22H32.8561L32.7461 19.932C32.3941 20.7093 31.9028 21.2887 31.2721 21.67C30.6415 22.0367 29.8788 22.22 28.9841 22.22ZM38.2272 22V11H41.5272L41.6812 13.376C41.9599 12.5547 42.3706 11.9167 42.9132 11.462C43.4706 11.0073 44.1746 10.78 45.0252 10.78C45.3039 10.78 45.5386 10.802 45.7292 10.846C45.9346 10.89 46.0959 10.9487 46.2132 11.022L45.8392 14.102C45.6926 14.0433 45.5019 13.9993 45.2672 13.97C45.0472 13.926 44.7759 13.904 44.4532 13.904C44.0132 13.904 43.6026 13.9993 43.2212 14.19C42.8399 14.3807 42.5319 14.6667 42.2972 15.048C42.0772 15.4147 41.9672 15.884 41.9672 16.456V22H38.2272ZM65.908 22.22C64.6907 22.22 63.6347 21.9927 62.74 21.538C61.86 21.0833 61.178 20.4307 60.694 19.58C60.21 18.7293 59.968 17.7027 59.968 16.5C59.968 15.2973 60.21 14.2707 60.694 13.42C61.178 12.5693 61.8527 11.9167 62.718 11.462C63.598 11.0073 64.6027 10.78 65.732 10.78C66.8907 10.78 67.8734 11.0073 68.68 11.462C69.5014 11.902 70.1247 12.518 70.55 13.31C70.9754 14.0873 71.188 14.982 71.188 15.994C71.188 16.258 71.1807 16.522 71.166 16.786C71.1514 17.05 71.1294 17.27 71.1 17.446H62.388V15.444H69.45L67.668 16.126C67.668 15.246 67.5067 14.5713 67.184 14.102C66.876 13.6327 66.392 13.398 65.732 13.398C65.2627 13.398 64.8594 13.508 64.522 13.728C64.1994 13.948 63.95 14.2927 63.774 14.762C63.6127 15.2313 63.532 15.8327 63.532 16.566C63.532 17.2847 63.6274 17.8713 63.818 18.326C64.0087 18.766 64.28 19.0887 64.632 19.294C64.984 19.4847 65.4094 19.58 65.908 19.58C66.4654 19.58 66.9054 19.47 67.228 19.25C67.5654 19.03 67.8147 18.722 67.976 18.326L70.968 19.316C70.7627 19.9467 70.4034 20.482 69.89 20.922C69.3914 21.3473 68.79 21.67 68.086 21.89C67.3967 22.11 66.6707 22.22 65.908 22.22ZM77.9883 22.22C76.7709 22.22 75.7149 21.9927 74.8203 21.538C73.9403 21.0833 73.2583 20.4307 72.7743 19.58C72.2903 18.7293 72.0483 17.7027 72.0483 16.5C72.0483 15.2973 72.2903 14.2707 72.7743 13.42C73.2583 12.5693 73.9329 11.9167 74.7983 11.462C75.6783 11.0073 76.6829 10.78 77.8123 10.78C78.9709 10.78 79.9536 11.0073 80.7603 11.462C81.5816 11.902 82.2049 12.518 82.6303 13.31C83.0556 14.0873 83.2683 14.982 83.2683 15.994C83.2683 16.258 83.2609 16.522 83.2463 16.786C83.2316 17.05 83.2096 17.27 83.1803 17.446H74.4683V15.444H81.5303L79.7483 16.126C79.7483 15.246 79.5869 14.5713 79.2643 14.102C78.9563 13.6327 78.4723 13.398 77.8123 13.398C77.3429 13.398 76.9396 13.508 76.6023 13.728C76.2796 13.948 76.0303 14.2927 75.8543 14.762C75.6929 15.2313 75.6123 15.8327 75.6123 16.566C75.6123 17.2847 75.7076 17.8713 75.8983 18.326C76.0889 18.766 76.3603 19.0887 76.7123 19.294C77.0643 19.4847 77.4896 19.58 77.9883 19.58C78.5456 19.58 78.9856 19.47 79.3083 19.25C79.6456 19.03 79.8949 18.722 80.0563 18.326L83.0483 19.316C82.8429 19.9467 82.4836 20.482 81.9703 20.922C81.4716 21.3473 80.8703 21.67 80.1663 21.89C79.4769 22.11 78.7509 22.22 77.9883 22.22ZM96.7785 11L91.4985 16.632L90.7945 16.83L87.6485 20.35L87.6265 16.522L92.6205 11H96.7785ZM88.4405 6.336V22H84.7005V6.336H88.4405ZM92.0705 14.3L97.0205 22H92.8845L89.6285 16.5L92.0705 14.3ZM102.514 22.22C101.297 22.22 100.241 21.9927 99.346 21.538C98.466 21.0833 97.784 20.4307 97.3 19.58C96.816 18.7293 96.574 17.7027 96.574 16.5C96.574 15.2973 96.816 14.2707 97.3 13.42C97.784 12.5693 98.4587 11.9167 99.324 11.462C100.204 11.0073 101.209 10.78 102.338 10.78C103.497 10.78 104.479 11.0073 105.286 11.462C106.107 11.902 106.731 12.518 107.156 13.31C107.581 14.0873 107.794 14.982 107.794 15.994C107.794 16.258 107.787 16.522 107.772 16.786C107.757 17.05 107.735 17.27 107.706 17.446H98.994V15.444H106.056L104.274 16.126C104.274 15.246 104.113 14.5713 103.79 14.102C103.482 13.6327 102.998 13.398 102.338 13.398C101.869 13.398 101.465 13.508 101.128 13.728C100.805 13.948 100.556 14.2927 100.38 14.762C100.219 15.2313 100.138 15.8327 100.138 16.566C100.138 17.2847 100.233 17.8713 100.424 18.326C100.615 18.766 100.886 19.0887 101.238 19.294C101.59 19.4847 102.015 19.58 102.514 19.58C103.071 19.58 103.511 19.47 103.834 19.25C104.171 19.03 104.421 18.722 104.582 18.326L107.574 19.316C107.369 19.9467 107.009 20.482 106.496 20.922C105.997 21.3473 105.396 21.67 104.692 21.89C104.003 22.11 103.277 22.22 102.514 22.22ZM109.226 22V11H112.526L112.68 13.376C112.959 12.5547 113.37 11.9167 113.912 11.462C114.47 11.0073 115.174 10.78 116.024 10.78C116.303 10.78 116.538 10.802 116.728 10.846C116.934 10.89 117.095 10.9487 117.212 11.022L116.838 14.102C116.692 14.0433 116.501 13.9993 116.266 13.97C116.046 13.926 115.775 13.904 115.452 13.904C115.012 13.904 114.602 13.9993 114.22 14.19C113.839 14.3807 113.531 14.6667 113.296 15.048C113.076 15.4147 112.966 15.884 112.966 16.456V22H109.226Z" fill="black"/>
</svg>
